<svg xmlns="http://www.w3.org/2000/svg" viewBox="0 0 640 360" role="img" aria-label="Cybersecurity Illustration">
  <defs>
    <linearGradient id="cy" x1="0" y1="0" x2="1" y2="1">
      <stop offset="0%" stop-color="#22c55e"/>
      <stop offset="100%" stop-color="#0ea5e9"/>
    </linearGradient>
  </defs>
  <rect width="100%" height="100%" fill="#0a0f1c"/>
  <g fill="none" stroke="#1f2937" opacity="0.6">
    <rect x="40" y="40" width="560" height="280" rx="10"/>
    <path d="M80 80 H560 M80 120 H560 M80 160 H560 M80 200 H560 M80 240 H560 M80 280 H560"/>
  </g>
  <g transform="translate(220,90)">
    <path d="M100 20 C100 8 108 0 120 0 C132 0 140 8 140 20 V48 C140 88 100 110 100 110 C100 110 60 88 60 48 V20 C60 8 68 0 80 0 C92 0 100 8 100 20 Z" fill="url(#cy)"/>
    <rect x="84" y="38" width="32" height="38" rx="6" fill="#0b1324" stroke="#7dd3fc"/>
    <path d="M100 58 v8" stroke="#7dd3fc" stroke-width="3"/>
  </g>
  <g fill="#9ca3af" font-family="'Poppins', system-ui, -apple-system, Segoe UI, Roboto, Arial" font-size="18" text-anchor="middle">
    <text x="320" y="320" fill="#cbd5e1">Cybersecurity</text>
  </g>
</svg>
